<svg xmlns="http://www.w3.org/2000/svg" width="24" height="24" aria-hidden="true" class="Icon_icon__3jQrI" data-type="Flag-en-US" shape-rendering="geometricPrecision">
  <path fill="#F0F0F0" d="M0 4h24v16H0V4z"/>
  <path fill="#D80027" d="M0 4h24v1.2H0zM0 6.5h24v1.2H0zM0 8.9h24v1.2H0zM0 11.4h24v1.2H0zM0 13.9h24v1.2H0zM0 16.4h24v1.2H0zM0 18.8h24V20H0z"/>
  <path fill="#2E52B2" d="M0 4h12.2v8.6H0V4z"/>
  <path fill="#FFF" d="m1 4.4-.1.3H.5l.3.2-.1.3L1 5l.3.2-.1-.3.3-.2h-.4zM1 6.1l-.1.3H.5l.3.2-.1.4.3-.2.3.2-.1-.4.3-.2h-.4zM1 7.8l-.1.3H.5l.3.2-.1.4.3-.2.3.2-.1-.4.3-.2h-.4zM1 9.5l-.1.4H.5l.3.2-.1.3.3-.2.3.2-.1-.3.3-.2h-.4zM1.1 11.6l-.1-.4-.1.4H.5l.3.2-.1.3.3-.2.3.2-.1-.3.3-.2zM2 5.2l-.1.4h-.3l.2.2-.1.3.3-.2.3.2-.1-.3.3-.2h-.4zM2 6.9l-.1.4h-.3l.2.2-.1.3.3-.2.3.2-.1-.3.3-.2h-.4zM2 8.7l-.1.3h-.3l.2.2-.1.3.3-.2.3.2-.1-.3.3-.2h-.4zM2.1 10.7l-.1-.3-.1.3h-.3l.2.2-.1.4.3-.2.3.2-.1-.4.3-.2zM3 4.4l-.1.3h-.3l.3.2-.2.3L3 5l.3.2-.1-.3.3-.2h-.4zM3 6.1l-.1.3h-.3l.3.2-.2.4.3-.2.3.2-.1-.4.3-.2h-.4zM3 7.8l-.1.3h-.3l.3.2-.2.4.3-.2.3.2-.1-.4.3-.2h-.4zM3 9.5l-.1.4h-.3l.3.2-.2.3.3-.2.3.2-.1-.3.3-.2h-.4zM3.1 11.6l-.1-.4-.1.4h-.3l.3.2-.2.3.3-.2.3.2-.1-.3.3-.2zM4.1 5.2l-.2.4h-.3l.3.2-.1.3.3-.2.2.2-.1-.3.3-.2h-.3zM4.1 6.9l-.2.4h-.3l.3.2-.1.3.3-.2.2.2-.1-.3.3-.2h-.3zM4.1 8.7l-.2.3h-.3l.3.2-.1.3.3-.2.2.2-.1-.3.3-.2h-.3zM4.2 10.7l-.1-.3-.2.3h-.3l.3.2-.1.4.3-.2.2.2-.1-.4.3-.2zM5.1 4.4l-.1.3h-.4l.3.2-.1.3.3-.2.3.2-.2-.3.3-.2h-.3zM5.1 6.1l-.1.3h-.4l.3.2-.1.4.3-.2.3.2-.2-.4.3-.2h-.3zM5.1 7.8l-.1.3h-.4l.3.2-.1.4.3-.2.3.2-.2-.4.3-.2h-.3zM5.1 9.5l-.1.4h-.4l.3.2-.1.3.3-.2.3.2-.2-.3.3-.2h-.3zM5.2 11.6l-.1-.4-.1.4h-.4l.3.2-.1.3.3-.2.3.2-.2-.3.3-.2zM6.1 5.2l-.1.4h-.4l.3.2-.1.3.3-.2.3.2-.1-.3.2-.2h-.3zM6.1 6.9l-.1.4h-.4l.3.2-.1.3.3-.2.3.2-.1-.3.2-.2h-.3zM6.1 8.7 6 9h-.4l.3.2-.1.3.3-.2.3.2-.1-.3.2-.2h-.3zM6.2 10.7l-.1-.3-.1.3h-.4l.3.2-.1.4.3-.2.3.2-.1-.4.2-.2zM7.1 4.4l-.1.3h-.4l.3.2-.1.3.3-.2.3.2-.1-.3.3-.2h-.4zM7.1 6.1l-.1.3h-.4l.3.2-.1.4.3-.2.3.2-.1-.4.3-.2h-.4zM7.1 7.8l-.1.3h-.4l.3.2-.1.4.3-.2.3.2-.1-.4.3-.2h-.4zM7.1 9.5l-.1.4h-.4l.3.2-.1.3.3-.2.3.2-.1-.3.3-.2h-.4zM7.2 11.6l-.1-.4-.1.4h-.4l.3.2-.1.3.3-.2.3.2-.1-.3.3-.2zM8.1 5.2l-.1.4h-.4l.3.2-.1.3.3-.2.3.2-.1-.3.3-.2h-.4zM8.1 6.9l-.1.4h-.4l.3.2-.1.3.3-.2.3.2-.1-.3.3-.2h-.4zM8.1 8.7 8 9h-.4l.3.2-.1.3.3-.2.3.2-.1-.3.3-.2h-.4zM8.2 10.7l-.1-.3-.1.3h-.4l.3.2-.1.4.3-.2.3.2-.1-.4.3-.2zM9.1 4.4l-.1.3h-.4l.3.2-.1.3.3-.2.3.2-.1-.3.3-.2h-.4zM9.1 6.1l-.1.3h-.4l.3.2-.1.4.3-.2.3.2-.1-.4.3-.2h-.4zM9.1 7.8l-.1.3h-.4l.3.2-.1.4.3-.2.3.2-.1-.4.3-.2h-.4zM9.1 9.5l-.1.4h-.4l.3.2-.1.3.3-.2.3.2-.1-.3.3-.2h-.4zM9.2 11.6l-.1-.4-.1.4h-.4l.3.2-.1.3.3-.2.3.2-.1-.3.3-.2zM10.1 5.2l-.1.4h-.3l.2.2-.1.3.3-.2.3.2-.1-.3.3-.2h-.4zM10.1 6.9l-.1.4h-.3l.2.2-.1.3.3-.2.3.2-.1-.3.3-.2h-.4zM10.1 8.7 10 9h-.3l.2.2-.1.3.3-.2.3.2-.1-.3.3-.2h-.4zM10.2 10.7l-.1-.3-.1.3h-.3l.2.2-.1.4.3-.2.3.2-.1-.4.3-.2zM11 4.9l-.1.3.2-.2.3.2-.1-.3.3-.2h-.4l-.1-.3-.1.3h-.3zM11.1 6.1l-.1.3h-.3l.3.2-.1.4.2-.2.3.2-.1-.4.3-.2h-.4zM11.1 7.8l-.1.3h-.3l.3.2-.1.4.2-.2.3.2-.1-.4.3-.2h-.4zM11.1 9.5l-.1.4h-.3l.3.2-.1.3.2-.2.3.2-.1-.3.3-.2h-.4zM11.2 11.6l-.1-.4-.1.4h-.3l.3.2-.1.3.2-.2.3.2-.1-.3.3-.2z"/>
</svg>
