<svg
  size="128"
  viewBox="0 0 128 128"
  width="128"
  height="128"
  shape-rendering="geometricPrecision"
  xmlns="http://www.w3.org/2000/svg"
>
  <style>
    .new-smile-sparkle path:nth-child(1) {
      animation: sparkle 1.6s linear infinite 0.2s;
    }
    .new-smile-sparkle path:nth-child(2) {
      animation: sparkle 1.9s linear infinite 0.2s;
    }
    .new-smile-sparkle path:nth-child(3) {
      animation: sparkle 1.9s linear infinite 0.2s;
    }
    .new-smile-sparkle path:nth-child(4) {
      animation: sparkle 2.2s linear infinite 0.2s;
    }
    .new-smile-sparkle path:nth-child(5) {
      animation: sparkle 1.9s linear infinite 0.6s;
    }
    @keyframes sparkle {
      10% {
        opacity: 1.1517266119;
      }
      20% {
        opacity: 1.0077023078;
      }
      30% {
        opacity: 0.6850073675;
      }
      40% {
        opacity: 1.2116012986;
      }
      50% {
        opacity: 0.2686879177;
      }
      60% {
        opacity: 0.9847534071;
      }
      70% {
        opacity: 0.5603537521;
      }
      80% {
        opacity: 0.5027818325;
      }
      90% {
        opacity: 1.0688110433;
      }
      100% {
        opacity: 1.097974334;
      }
    }
  </style>
  <g class="new-smile-sparkle">
    <path
      d="M125.1,110.45c-.84-.12-1.68-.2-2.53-.24v-.46c0-1.67.25-3.71-1.62-3.79s-2,1.71-2,3.48c0,.21,0,.43,0,.64-1.34,0-2.74,0-2.83,1.64s1.32,2,2.79,2v1.52c0,1.42.26,2.63,1.56,2.71s1.65-.81,1.82-2.06c.09-.7.16-1.43.2-2.19h2.09c1.3,0,2.38-.26,2.46-1.58S126.25,110.63,125.1,110.45Z"
    ></path>
    <path
      d="M10,83.49c-.57,0-1.14-.16-1.74-.2v-.5c0-1.67.25-3.71-1.6-3.82s-2,1.73-2.07,3.51v.64H4.45c-1.51,0-3.36-.27-3.45,1.62s1.56,2,3.17,2.06h.28v1.47c0,1.45.29,2.63,1.57,2.74S7.69,90.2,7.84,89c.11-.7.15-1.41.2-2.19H9.33c1.3,0,2.38-.27,2.47-1.56S11.05,83.66,10,83.49Z"
    ></path>
    <path
      d="M38.08,14.52c-.58,0-1.17-.15-1.74-.2v-.5c0-1.67.24-3.71-1.63-3.82s-2,1.74-2,3.51v.64h-.22c-1.5,0-3.34-.26-3.43,1.62s1.56,2,3.16,2.06h.42V19.3c0,1.45.27,2.63,1.56,2.74S35.81,21.23,36,20c0-.7.15-1.4.2-2.19h1.27c1.3,0,2.4-.26,2.46-1.56S39.2,14.7,38.08,14.52Z"
    ></path>
    <path
      d="M120.67,15.5a4.62,4.62,0,0,1-3.1-1,4.69,4.69,0,0,1-1.71-2.77c-.22-.87-.66-1.73-1.83-1.75s-1.51.83-1.8,1.73a16.15,16.15,0,0,1-4.39,7.19,2.16,2.16,0,0,0-.61.83,2.09,2.09,0,0,0-.16,1c0,1.14.77,1.49,1.78,1.68,3.51.71,3.58.82,3.8,4.39,0,.7,0,1.43.81,1.73a1.72,1.72,0,0,0,.9,0,1.75,1.75,0,0,0,.77-.47,3.33,3.33,0,0,0,1.32-1.53,18.45,18.45,0,0,1,5.19-7.94,2,2,0,0,0,.67-.91,2,2,0,0,0,.06-1.13C122.23,15.68,121.49,15.55,120.67,15.5ZM115,22.08c-.13,0-.31,0-.35-.17-.62-1.32-3.21-.95-2.86-2.74.24-1.3,1.47-2.39,2.37-3.71a8,8,0,0,0,3.57,2.5c-.95,1.49-1.83,2.85-2.73,4.21Z"
    ></path>
    <path
      d="M91.14,29a5.19,5.19,0,0,1,2.16,1.6A5.3,5.3,0,0,1,94.37,33c.2.86.6,1.58,1.23,1.63,1.21,0,1.74-.44,1.92-1.14a15.3,15.3,0,0,1,3.62-6.23c1-1.21,1-2.7-.92-3.18a2.92,2.92,0,0,1-2-1.15,2.84,2.84,0,0,1-.5-1.07,2.93,2.93,0,0,1,0-1.18,1.37,1.37,0,0,0,0-.57,1.5,1.5,0,0,0-.24-.53A1.53,1.53,0,0,0,97,19.2a1.57,1.57,0,0,0-.55-.19c-.94-.13-1.25.44-1.6,1.25a12.59,12.59,0,0,1-4,6,1.43,1.43,0,0,0-.65.59,1.41,1.41,0,0,0-.19.85,1.42,1.42,0,0,0,.33.81A1.53,1.53,0,0,0,91.14,29Zm4.4-3.16c.7-.83,1-.37,1.54,0,2.19,1.71-1.34,1.84-.36,3.4-1.91-1.1-2.5-2-1.23-3.4Z"
    ></path>
  </g>
  <path
    d="M97.2,39.49c-10.85-1-21.44-.76-29.27,9.38A18.2,18.2,0,0,0,54.64,41c-14.6-2.23-28.92-1.29-42.56,5-2.46,1.14-2.5,2.67-1.36,4.86a77.78,77.78,0,0,0,34.21,33c27.45,14,66,5,79.53-34.53,1.27-3.74.35-5.32-3.4-6.43a20.82,20.82,0,0,0-2.91-.68C111.17,41.31,104.2,40.15,97.2,39.49Z"
    fill="#fff"
  ></path>
  <path
    d="M15,49.85s13.16-12.76,43.59-5.28c3.47.86,6,3.74,7.38,7.37.63,1.73,1.22,1.6,2.62.77a2.42,2.42,0,0,0,1.16-1.16C76.45,36.09,108,41,119.43,46c-2.76,1.72-15.52,11.06-51,12.59C24.2,60.5,15,49.85,15,49.85Z"
    fill="#e72323"
  ></path>
  <path
    d="M116.69,58.05c-11,28.44-49.27,31.19-74.56,19.69-14.38-6.56-21-14-18.7-16.34,1.6-1.58,15.5,9.78,42.82,9.78C85.27,71.18,101.34,64.61,116.69,58.05Z"
    fill="#e72323"
  ></path>
  <g>
    <path d="M66.89,60.11V71.64h1.58V60.05Z"></path>
    <path d="M86.85,58.31V69.73l1.58-.33V58.05Z"></path>
    <path d="M27,57.06v5.73l1.57.83V57.34Z"></path>
    <path d="M46.93,59.05V69.18l1.6.3V59.16Z"></path>
    <path d="M105.81,53.66v9l1.58-.87V53.07Z"></path>
  </g>
  <path
    d="M17,50.08c26.71,10.32,79.31,10.15,99.57-3.9-7.8-1.09-15-2.38-22.3-3.06-9.36-.85-18.17.31-24.12,9a3.93,3.93,0,0,1-1.25,1.25c-1.4.81-2.78.83-3.42-.9a11.4,11.4,0,0,0-7.61-6.56c-8-3-27.23-3.9-41,4.18Zm96.88,11.35A101.41,101.41,0,0,1,68.92,72.89a101.46,101.46,0,0,1-45.35-9.71A87.72,87.72,0,0,0,42.65,78.07C60.8,88.59,79,88.68,97.31,78.6A39.41,39.41,0,0,0,113.85,61.43ZM21.64,56.29c2.33,1.49,4.56,3.13,7,4.37a80.84,80.84,0,0,0,37.71,8.56c14.21.11,27.94-2.08,40.59-9a28,28,0,0,0,10.46-8.75C85.87,63.94,54.05,63.77,21.64,56.29Zm46.29-7.42c7.83-10.14,18.42-10.36,29.27-9.38,7,.66,14,1.82,21,2.76a20.82,20.82,0,0,1,2.91.68c3.75,1.11,4.67,2.69,3.4,6.43C111,88.94,72.38,97.91,44.93,83.89a77.78,77.78,0,0,1-34.21-33c-1.14-2.19-1.1-3.72,1.36-4.86,13.64-6.32,28-7.26,42.56-5a18.2,18.2,0,0,1,13.29,7.83Z"
  ></path>
</svg>
