<svg width="128" height="128" viewBox="0 0 128 128" fill="none" xmlns="http://www.w3.org/2000/svg">
<g clip-path="url(#clip0_1891_2056)">
<path d="M106.056 70.8021C105.588 70.8091 105.123 70.7253 104.69 70.5557C104.257 70.3862 103.865 70.1344 103.538 69.8157C103.212 69.497 102.956 69.118 102.788 68.7016C102.62 68.2852 102.543 67.8402 102.56 67.3933C102.559 66.9464 102.652 66.5032 102.834 66.0901C103.015 65.677 103.282 65.3023 103.617 64.9882C103.953 64.6741 104.35 64.427 104.787 64.2614C105.223 64.0959 105.69 64.0154 106.158 64.0245C107.103 64.0328 108.003 64.3976 108.662 65.039C109.32 65.6804 109.684 66.5461 109.673 67.4465C109.668 67.8928 109.571 68.3344 109.386 68.7455C109.201 69.1567 108.933 69.5291 108.596 69.8414C108.26 70.1536 107.862 70.3993 107.426 70.5642C106.99 70.7291 106.524 70.81 106.056 70.8021Z" fill="#E0E5EB"/>
<path d="M113.807 62.3309C113.337 62.3378 112.872 62.2539 112.439 62.0841C112.006 61.9142 111.614 61.6621 111.287 61.343C110.961 61.0239 110.705 60.6445 110.538 60.2277C110.37 59.8109 110.293 59.3654 110.311 58.9183C110.311 58.4717 110.404 58.029 110.586 57.6164C110.767 57.2037 111.034 56.8295 111.369 56.5158C111.704 56.2021 112.102 55.9553 112.538 55.79C112.974 55.6247 113.44 55.5442 113.909 55.5533C114.375 55.557 114.836 55.6483 115.265 55.8221C115.693 55.9958 116.081 56.2486 116.407 56.5659C116.732 56.8832 116.988 57.2588 117.161 57.6714C117.333 58.084 117.418 58.5254 117.412 58.9704C117.405 59.4154 117.306 59.8554 117.122 60.2651C116.937 60.6748 116.669 61.0463 116.335 61.3584C116 61.6704 115.604 61.9169 115.171 62.0838C114.737 62.2506 114.273 62.3346 113.807 62.3309Z" fill="#E0E5EB"/>
<path d="M103.062 74.6908C103.019 75.5414 102.635 76.3458 101.989 76.9373C101.344 77.5289 100.485 77.8622 99.5923 77.8683C99.1404 77.8611 98.695 77.769 98.2815 77.5973C97.868 77.4256 97.4946 77.1776 97.1827 76.8675C96.8707 76.5574 96.6263 76.1913 96.4635 75.7902C96.3007 75.3891 96.2227 74.9609 96.2339 74.53C96.2451 74.0991 96.3454 73.6741 96.5289 73.2792C96.7124 72.8843 96.9755 72.5273 97.3033 72.2287C97.6311 71.9301 98.0171 71.6957 98.4391 71.539C98.8611 71.3822 99.3109 71.3062 99.7628 71.3152C100.214 71.3262 100.658 71.4225 101.069 71.5986C101.48 71.7747 101.85 72.0272 102.157 72.3412C102.463 72.6552 102.701 73.0247 102.857 73.428C103.012 73.8314 103.082 74.2606 103.062 74.6908Z" fill="#E0E5EB"/>
<path d="M109.293 82.7945C108.84 82.8036 108.39 82.7247 107.971 82.5627C107.552 82.4006 107.172 82.1589 106.855 81.852C106.538 81.5452 106.29 81.1797 106.127 80.7778C105.963 80.3759 105.887 79.946 105.903 79.5141C105.933 78.648 106.315 77.8249 106.97 77.2199C107.624 76.6149 108.499 76.2758 109.407 76.2747C110.319 76.3112 111.178 76.6822 111.806 77.3103C112.433 77.9384 112.781 78.7749 112.775 79.645C112.722 80.4919 112.332 81.2895 111.685 81.8749C111.038 82.4603 110.182 82.7893 109.293 82.7945Z" fill="#E0E5EB"/>
<path d="M95.5581 67.3665C95.5335 68.2089 95.159 69.0095 94.517 69.5921C93.8749 70.1748 93.0179 70.4918 92.1345 70.4734C91.6971 70.4643 91.2663 70.3732 90.8669 70.2051C90.4674 70.0371 90.107 69.7955 89.8063 69.4941C89.199 68.8855 88.8716 68.0703 88.8962 67.2279C88.9092 66.8134 89.0086 66.405 89.1886 66.0265C89.3686 65.6481 89.6256 65.3071 89.9446 65.0235C90.2636 64.7399 90.6382 64.5193 91.0466 64.3746C91.455 64.2299 91.8891 64.1639 92.3235 64.1806C92.7606 64.1727 93.1943 64.2503 93.5976 64.4087C94.001 64.5671 94.3655 64.8029 94.6687 65.1015C94.9718 65.4 95.2072 65.7551 95.3601 66.1447C95.5131 66.5343 95.5805 66.9501 95.5581 67.3665Z" fill="#E0E5EB"/>
<path d="M100.336 90.9919C99.4743 90.9797 98.6542 90.6451 98.0524 90.0602C97.4507 89.4753 97.1155 88.6869 97.1193 87.8651C97.1188 87.4489 97.2072 87.0363 97.3789 86.6526C97.5507 86.2689 97.8022 85.922 98.1183 85.633C98.4344 85.344 98.8084 85.119 99.2176 84.9715C99.6269 84.8241 100.063 84.7573 100.499 84.7752C101.361 84.7973 102.178 85.1408 102.774 85.732C103.37 86.3233 103.698 87.1152 103.688 87.9378C103.647 88.7583 103.276 89.5339 102.651 90.103C102.027 90.672 101.197 90.9905 100.336 90.9919Z" fill="#E0E5EB"/>
<path d="M88.4081 73.9964C88.4084 74.3959 88.3248 74.7919 88.1622 75.1611C87.9996 75.5302 87.7613 75.865 87.4613 76.1457C87.1614 76.4264 86.8058 76.6473 86.4157 76.7953C86.0255 76.9434 85.6087 77.0155 85.1898 77.0076C84.7709 76.9997 84.3584 76.9119 83.9766 76.7493C83.5949 76.5867 83.2516 76.3526 82.9671 76.0609C82.6826 75.7692 82.4626 75.4257 82.3201 75.0508C82.1777 74.6759 82.1156 74.2771 82.1375 73.878C82.1371 73.4785 82.2207 73.0825 82.3833 72.7133C82.5459 72.3442 82.7843 72.0094 83.0842 71.7287C83.3842 71.448 83.7398 71.2271 84.1299 71.0791C84.5201 70.931 84.9369 70.8588 85.3558 70.8667C85.7747 70.8746 86.1872 70.9625 86.569 71.1251C86.9507 71.2877 87.294 71.5218 87.5785 71.8135C87.863 72.1052 88.083 72.4486 88.2254 72.8236C88.3679 73.1985 88.43 73.5973 88.4081 73.9964Z" fill="#E0E5EB"/>
<path d="M92.0476 84.19C91.2255 84.145 90.4519 83.8113 89.8758 83.2532C89.2998 82.6952 88.9622 81.9523 88.9281 81.1678C88.9571 80.3614 89.3172 79.5963 89.9309 79.0374C90.5445 78.4785 91.3625 78.1705 92.2085 78.18C92.6211 78.1796 93.0292 78.2575 93.409 78.4091C93.7889 78.5606 94.1329 78.7828 94.421 79.0628C94.7092 79.3427 94.9358 79.6748 95.0876 80.0398C95.2394 80.4047 95.3134 80.7952 95.3053 81.1886C95.2873 81.9959 94.9341 82.7652 94.3234 83.3279C93.7126 83.8906 92.8942 84.2006 92.0476 84.19Z" fill="#E0E5EB"/>
<path d="M88.1789 87.7527C88.162 88.5071 87.8373 89.2272 87.274 89.7602C86.7106 90.2932 85.9529 90.5972 85.1616 90.6075C84.3873 90.5898 83.6501 90.2947 83.0969 89.7809C82.5436 89.2671 82.2149 88.5723 82.1761 87.8349C82.1836 87.0806 82.4991 86.357 83.0557 85.8177C83.6122 85.2784 84.3659 84.9658 85.157 84.9462C85.5501 84.9394 85.9403 85.0067 86.3052 85.1442C86.6701 85.2817 87.0024 85.4867 87.2832 85.7474C87.564 86.0082 87.7877 86.3196 87.9414 86.6637C88.0951 87.0079 88.1758 87.3779 88.1789 87.7527Z" fill="#E0E5EB"/>
<path d="M93.0219 98.6034C92.6288 98.6212 92.2365 98.5614 91.8696 98.4278C91.5027 98.2942 91.1692 98.0897 90.89 97.827C90.6107 97.5642 90.3917 97.2491 90.2467 96.9011C90.1017 96.5532 90.0338 96.18 90.0472 95.805C90.0443 95.4318 90.12 95.0613 90.2698 94.7156C90.4195 94.3699 90.6404 94.056 90.9193 93.7924C91.1981 93.5289 91.5293 93.321 91.8931 93.1812C92.257 93.0414 92.6461 92.9724 93.0375 92.9785C93.4327 92.965 93.826 93.0306 94.192 93.1711C94.558 93.3116 94.8886 93.5238 95.1625 93.7941C95.4364 94.0644 95.6475 94.3867 95.7821 94.7404C95.9168 95.094 95.9721 95.4711 95.9445 95.8473C95.9553 96.2138 95.8867 96.5789 95.743 96.9198C95.5992 97.2608 95.3835 97.5703 95.1093 97.8289C94.835 98.0875 94.5081 98.2898 94.1489 98.4231C93.7898 98.5563 93.4061 98.6177 93.0219 98.6034Z" fill="#E0E5EB"/>
<path d="M75.385 81.0169C75.4086 80.2918 75.7293 79.6028 76.2784 79.0977C76.8275 78.5927 77.5612 78.3119 78.3218 78.3157C79.0953 78.3426 79.8264 78.6527 80.3632 79.1815C80.8999 79.7104 81.201 80.4174 81.2038 81.1554C81.1635 81.8785 80.8327 82.5606 80.2802 83.0602C79.7278 83.5598 78.996 83.8386 78.2368 83.8386C77.8513 83.8419 77.4696 83.7706 77.1148 83.6289C76.76 83.4872 76.4395 83.2781 76.1729 83.0142C75.9062 82.7503 75.6988 82.4372 75.5634 82.0939C75.428 81.7506 75.3673 81.3841 75.385 81.0169Z" fill="#E0E5EB"/>
<path d="M74.3107 73.7681C74.2889 74.5077 73.971 75.2131 73.4223 75.7394C72.8737 76.2656 72.1358 76.573 71.3602 76.5983C70.9834 76.5928 70.612 76.5166 70.2671 76.3739C69.9222 76.2312 69.6106 76.0249 69.3501 75.7667C69.0896 75.5086 68.8854 75.2037 68.7492 74.8695C68.6129 74.5354 68.5473 74.1785 68.5561 73.8192C68.5846 73.0962 68.907 72.4104 69.4551 71.907C70.0031 71.4035 70.7338 71.122 71.4925 71.1218C72.2336 71.1233 72.9431 71.4008 73.4696 71.8952C73.9961 72.3896 74.2979 73.0616 74.3107 73.7681Z" fill="#E0E5EB"/>
<path d="M87.887 101.694C87.8495 102.385 87.5325 103.036 87.0028 103.511C86.473 103.986 85.7719 104.247 85.0471 104.24C84.675 104.246 84.3059 104.18 83.9617 104.047C83.6176 103.914 83.3055 103.716 83.0441 103.465C82.7826 103.214 82.577 102.915 82.4397 102.586C82.3024 102.257 82.236 101.905 82.2446 101.55C82.2532 101.195 82.3366 100.846 82.4897 100.521C82.6429 100.197 82.8628 99.9052 83.1362 99.663C83.4096 99.4208 83.7311 99.2332 84.0813 99.1115C84.4316 98.9897 84.8036 98.9363 85.1751 98.9543C85.5432 98.9628 85.9054 99.0404 86.241 99.1828C86.5767 99.3252 86.8791 99.5296 87.1311 99.7841C87.383 100.039 87.5795 100.338 87.7092 100.666C87.8389 100.994 87.8993 101.343 87.887 101.694Z" fill="#E0E5EB"/>
<path d="M98.0623 105.278C98.0249 105.967 97.7085 106.618 97.1796 107.093C96.6507 107.568 95.9505 107.83 95.2263 107.823C94.8542 107.829 94.4851 107.764 94.141 107.631C93.7969 107.497 93.4848 107.3 93.2233 107.049C92.9618 106.798 92.7563 106.499 92.6189 106.17C92.4816 105.841 92.4152 105.489 92.4238 105.134C92.4324 104.779 92.5158 104.429 92.6689 104.105C92.8221 103.781 93.042 103.489 93.3154 103.247C93.5888 103.004 93.9103 102.817 94.2606 102.695C94.6109 102.573 94.9828 102.52 95.3544 102.538C95.722 102.547 96.0838 102.625 96.4189 102.768C96.7541 102.91 97.0561 103.115 97.3076 103.369C97.5591 103.623 97.7552 103.923 97.8847 104.251C98.0142 104.578 98.0746 104.927 98.0623 105.278Z" fill="#E0E5EB"/>
<path d="M80.8947 94.9842C80.849 95.656 80.5414 96.2885 80.0323 96.7576C79.5233 97.2266 78.8498 97.498 78.1443 97.5186C77.7884 97.5113 77.4379 97.4373 77.1128 97.3008C76.7877 97.1643 76.4944 96.9678 76.2496 96.7227C76.0048 96.4777 75.8133 96.1887 75.686 95.8724C75.5588 95.5561 75.4983 95.2186 75.508 94.8793C75.5177 94.5399 75.5974 94.2052 75.7426 93.8944C75.8877 93.5837 76.0955 93.3028 76.354 93.068C76.6126 92.8331 76.9168 92.6488 77.2493 92.5256C77.5818 92.4024 77.9362 92.3427 78.2921 92.3499C78.9989 92.3866 79.6624 92.68 80.1465 93.17C80.6305 93.6599 80.8983 94.3091 80.8947 94.9842Z" fill="#E0E5EB"/>
<path d="M71.2474 90.1922C70.8935 90.202 70.5419 90.1406 70.2155 90.0121C69.8891 89.8835 69.5953 89.6906 69.353 89.4459C69.1108 89.2013 68.9257 88.9104 68.8098 88.5922C68.6939 88.274 68.6498 87.9357 68.6804 87.5994C68.6932 87.2656 68.7748 86.937 68.9206 86.6325C69.0664 86.328 69.2735 86.0535 69.5301 85.8247C69.7867 85.5959 70.0877 85.4172 70.416 85.2989C70.7443 85.1806 71.0935 85.1249 71.4435 85.1352C71.7936 85.1454 72.1377 85.2212 72.4562 85.3584C72.7747 85.4956 73.0613 85.6914 73.2998 85.9346C73.5383 86.1779 73.7239 86.4639 73.846 86.7762C73.9681 87.0885 74.0244 87.4211 74.0116 87.7549C74.0151 88.0923 73.9443 88.427 73.8035 88.7375C73.6628 89.0479 73.4555 89.3271 73.1948 89.5569C72.9342 89.7867 72.6261 89.962 72.2907 90.0714C71.9552 90.1809 71.5997 90.222 71.2474 90.1922Z" fill="#E0E5EB"/>
<path d="M67.0547 80.9096C67.0207 82.4386 65.8419 83.5953 64.3637 83.5643C63.6565 83.5304 62.9917 83.2384 62.5071 82.7487C62.0225 82.2589 61.7552 81.609 61.7606 80.9337C61.779 80.5984 61.8668 80.2694 62.0188 79.9658C62.1709 79.6622 62.3842 79.3899 62.6466 79.1645C62.909 78.9392 63.2152 78.7653 63.5477 78.6529C63.8801 78.5405 64.2322 78.4917 64.5837 78.5094C65.2435 78.5242 65.87 78.7827 66.331 79.2305C66.792 79.6783 67.0514 80.2803 67.0547 80.9096Z" fill="#E0E5EB"/>
<path d="M71.2224 103.874C70.8926 103.876 70.5661 103.815 70.2622 103.695C69.9583 103.574 69.6831 103.397 69.4528 103.173C69.2224 102.949 69.0417 102.684 68.921 102.392C68.8004 102.1 68.7424 101.787 68.7503 101.473C68.7583 101.158 68.8321 100.848 68.9675 100.561C69.1028 100.273 69.2969 100.014 69.5384 99.7984C69.7799 99.5828 70.0639 99.4152 70.3736 99.3054C70.6834 99.1956 71.0127 99.1458 71.3421 99.159C71.983 99.1861 72.5875 99.4451 73.0325 99.8834C73.4775 100.322 73.7295 100.906 73.7372 101.518C73.7284 102.146 73.4588 102.747 72.9874 103.189C72.516 103.63 71.8814 103.877 71.2224 103.874Z" fill="#E0E5EB"/>
<path d="M57.4876 89.894C57.1599 89.9147 56.8315 89.871 56.523 89.7656C56.2145 89.6602 55.9323 89.4954 55.694 89.2814C55.4557 89.0674 55.2663 88.8088 55.1376 88.5215C55.0089 88.2342 54.9436 87.9245 54.9458 87.6114C54.9479 87.2984 55.0175 86.9887 55.1501 86.7016C55.2827 86.4144 55.4757 86.156 55.7169 85.9422C55.9581 85.7285 56.2425 85.564 56.5525 85.4589C56.8624 85.3538 57.1913 85.3104 57.5188 85.3314C58.1256 85.3703 58.6928 85.6277 59.1055 86.0515C59.5183 86.4753 59.7457 87.0338 59.7417 87.6139C59.7378 88.1939 59.5027 88.7522 59.0842 89.1756C58.6656 89.5989 58.0949 89.8558 57.4876 89.894Z" fill="#E0E5EB"/>
<path d="M64.4022 92.603C64.7206 92.5941 65.0371 92.648 65.3318 92.7613C65.6266 92.8746 65.8933 93.0448 66.1153 93.2612C66.3372 93.4777 66.5096 93.7358 66.6217 94.0194C66.7338 94.303 66.7832 94.6059 66.7667 94.9092C66.7223 95.4925 66.4453 96.0388 65.9927 96.4357C65.54 96.8326 64.9461 97.0501 64.3331 97.0433C63.72 97.0366 63.1344 96.8063 62.6965 96.3996C62.2586 95.9929 62.0017 95.4408 61.9787 94.8568C61.9723 94.5549 62.0312 94.2547 62.1517 93.9748C62.2722 93.695 62.4518 93.4414 62.6791 93.2299C62.9065 93.0185 63.1768 92.8537 63.4733 92.7458C63.7697 92.6379 64.0859 92.5893 64.4022 92.603Z" fill="#E0E5EB"/>
<path d="M79.435 108.732C79.3893 109.404 79.0817 110.036 78.5727 110.505C78.0636 110.974 77.3901 111.246 76.6846 111.266C76.3287 111.259 75.9782 111.185 75.6531 111.048C75.328 110.912 75.0347 110.716 74.7899 110.47C74.5451 110.225 74.3536 109.936 74.2263 109.62C74.0991 109.304 74.0386 108.966 74.0483 108.627C74.058 108.288 74.1377 107.953 74.2829 107.642C74.4281 107.331 74.6358 107.051 74.8944 106.816C75.1529 106.581 75.4571 106.397 75.7896 106.273C76.1221 106.15 76.4765 106.09 76.8324 106.098C77.5392 106.134 78.2027 106.428 78.6868 106.918C79.1709 107.408 79.4386 108.057 79.435 108.732Z" fill="#E0E5EB"/>
<path d="M62.9425 106.351C63.2609 106.342 63.5774 106.396 63.8721 106.509C64.1669 106.622 64.4336 106.792 64.6556 107.009C64.8775 107.225 65.0499 107.484 65.162 107.767C65.2741 108.051 65.3235 108.354 65.307 108.657C65.2626 109.24 64.9856 109.786 64.533 110.183C64.0803 110.58 63.4864 110.798 62.8734 110.791C62.2603 110.784 61.6747 110.554 61.2368 110.147C60.7989 109.741 60.542 109.189 60.519 108.604C60.5126 108.303 60.5715 108.002 60.692 107.723C60.8125 107.443 60.9921 107.189 61.2194 106.978C61.4468 106.766 61.7171 106.601 62.0136 106.494C62.31 106.386 62.6262 106.337 62.9425 106.351Z" fill="#E0E5EB"/>
<path d="M50.5994 83.1937C50.2905 83.2034 49.9831 83.1535 49.6956 83.047C49.4082 82.9405 49.1466 82.7796 48.9266 82.5739C48.7066 82.3683 48.5328 82.1221 48.4155 81.8502C48.2981 81.5783 48.2398 81.2863 48.2439 80.9917C48.2326 80.6897 48.2842 80.3881 48.3958 80.1045C48.5074 79.8209 48.6768 79.5609 48.8941 79.3396C49.1114 79.1182 49.3723 78.9398 49.6618 78.8148C49.9513 78.6898 50.2635 78.6206 50.5805 78.6113C51.2173 78.6407 51.8179 78.8966 52.264 79.3286C52.7101 79.7605 52.9692 80.3371 52.9903 80.9446C52.9666 81.538 52.7057 82.1016 52.2611 82.5198C51.8165 82.938 51.222 83.1792 50.5994 83.1937Z" fill="#E0E5EB"/>
<path d="M57.4355 103.487C56.8791 103.479 56.3478 103.27 55.9487 102.903C55.5496 102.535 55.3125 102.036 55.2852 101.507C55.2538 101.225 55.284 100.94 55.3738 100.669C55.4636 100.399 55.6112 100.149 55.8072 99.9344C56.0032 99.7204 56.2434 99.5471 56.5126 99.4255C56.7818 99.304 57.0742 99.2368 57.3713 99.2282C57.6684 99.2197 57.9637 99.2699 58.2387 99.3757C58.5137 99.4816 58.7624 99.6408 58.969 99.8433C59.1756 100.046 59.3357 100.287 59.4391 100.552C59.5426 100.817 59.5872 101.1 59.5701 101.383C59.5765 101.93 59.3555 102.458 58.9555 102.852C58.5555 103.247 58.009 103.475 57.4355 103.487Z" fill="#E0E5EB"/>
<path d="M48.4257 94.7426C48.4494 94.2168 48.6806 93.7178 49.0731 93.3458C49.4656 92.9737 49.9903 92.7561 50.5419 92.7366C51.0963 92.7484 51.6227 92.966 52.0092 93.343C52.3957 93.72 52.6119 94.2268 52.6117 94.7556C52.6109 95.0181 52.5555 95.2781 52.4487 95.5207C52.3419 95.7632 52.1858 95.9834 51.9896 96.1686C51.7933 96.3538 51.5607 96.5002 51.3052 96.5995C51.0497 96.6987 50.7764 96.7488 50.5011 96.7468C49.9464 96.7422 49.4173 96.5292 49.0287 96.1539C48.6401 95.7787 48.4234 95.2715 48.4257 94.7426Z" fill="#E0E5EB"/>
<path d="M45.7244 87.593C45.7185 87.8552 45.6584 88.1142 45.5476 88.3549C45.4369 88.5956 45.2776 88.8135 45.0789 88.996C44.8801 89.1786 44.6459 89.3222 44.3894 89.4187C44.133 89.5152 43.8594 89.5627 43.5844 89.5585C43.0316 89.518 42.518 89.275 42.1513 88.8803C41.7846 88.4856 41.5932 87.97 41.6173 87.4416C41.6426 86.9281 41.8757 86.4428 42.2676 86.0877C42.6595 85.7326 43.1796 85.5355 43.7186 85.5376C43.9951 85.5386 44.2682 85.5935 44.521 85.6988C44.7739 85.8042 45.0012 85.9578 45.189 86.1502C45.3768 86.3427 45.5211 86.5699 45.6132 86.818C45.7053 87.0661 45.7431 87.3298 45.7244 87.593Z" fill="#E0E5EB"/>
<path d="M86.274 58.3141C86.261 58.8435 86.0285 59.3476 85.6274 59.716C85.2263 60.0845 84.6893 60.2871 84.1341 60.2796C83.581 60.2381 83.0675 59.9942 82.701 59.599C82.3344 59.2037 82.1432 58.6877 82.1674 58.1589C82.1927 57.6459 82.4259 57.161 82.8178 56.8065C83.2097 56.4521 83.7297 56.2557 84.2683 56.2588C84.5448 56.2598 84.8178 56.3146 85.0707 56.42C85.3235 56.5253 85.5508 56.6789 85.7386 56.8714C85.9264 57.0638 86.0708 57.2911 86.1629 57.5391C86.2549 57.7872 86.2928 58.0509 86.274 58.3141Z" fill="#E0E5EB"/>
<path d="M45.3814 101.396C45.3967 101.621 45.3608 101.848 45.2761 102.059C45.1914 102.271 45.0598 102.463 44.8904 102.622C44.721 102.781 44.5177 102.904 44.2946 102.981C44.0714 103.059 43.8336 103.09 43.5973 103.072C43.3556 103.072 43.1166 103.027 42.894 102.938C42.6714 102.85 42.4697 102.72 42.3005 102.556C42.1312 102.393 41.9978 102.199 41.9079 101.985C41.8181 101.772 41.7735 101.543 41.7768 101.313C41.8231 100.865 42.0425 100.448 42.3925 100.143C42.7424 99.8387 43.1979 99.6686 43.6702 99.666C43.9029 99.6699 44.1323 99.7181 44.3448 99.8075C44.5573 99.8969 44.7488 100.026 44.908 100.187C45.0673 100.348 45.1911 100.538 45.2724 100.745C45.3537 100.953 45.3907 101.174 45.3814 101.396Z" fill="#E0E5EB"/>
<path d="M38.0608 94.7302C38.0762 94.9557 38.0403 95.182 37.9556 95.3936C37.8709 95.6052 37.7393 95.7972 37.5699 95.9563C37.4005 96.1155 37.1972 96.2381 36.9741 96.3158C36.7509 96.3934 36.5131 96.4243 36.2768 96.4063C36.0348 96.4064 35.7955 96.3608 35.5727 96.272C35.3499 96.1833 35.1481 96.0532 34.9788 95.8892C34.8095 95.7253 34.6763 95.5308 34.5866 95.317C34.497 95.1032 34.4529 94.8744 34.4567 94.6436C34.503 94.1956 34.7225 93.7791 35.0725 93.4753C35.4225 93.1715 35.8778 93.0022 36.3497 93.0004C36.5826 93.0038 36.8122 93.0516 37.0249 93.1409C37.2377 93.2301 37.4294 93.3591 37.5888 93.5202C37.7481 93.6813 37.872 93.8713 37.953 94.0791C38.0341 94.2868 38.0707 94.5082 38.0608 94.7302Z" fill="#E0E5EB"/>
<path d="M27.1426 93.4963C26.7397 93.4917 26.3558 93.3361 26.0738 93.0633C25.7918 92.7904 25.6344 92.4221 25.6355 92.0379C25.6395 91.8557 25.6824 91.676 25.7613 91.5096C25.8403 91.3432 25.9538 91.1937 26.095 91.0701C26.2362 90.9465 26.402 90.8513 26.5825 90.7905C26.763 90.7296 26.9544 90.7042 27.145 90.7159C27.3366 90.7052 27.5281 90.733 27.7072 90.7975C27.8862 90.8621 28.0488 90.9619 28.1844 91.0906C28.3199 91.2192 28.4253 91.3738 28.4938 91.5442C28.5623 91.7147 28.5923 91.8972 28.5819 92.0798C28.5816 92.447 28.431 92.8005 28.1622 93.065C27.8934 93.3296 27.5276 93.4843 27.1426 93.4963Z" fill="#E0E5EB"/>
<path d="M40.9481 80.1713C40.5451 80.1687 40.1605 80.0144 39.8781 79.7419C39.5957 79.4694 39.4384 79.1009 39.4405 78.7166C39.4446 78.5344 39.4874 78.3547 39.5664 78.1884C39.6454 78.022 39.7589 77.8725 39.9 77.7489C40.0412 77.6252 40.2071 77.5301 40.3876 77.4692C40.568 77.4083 40.7594 77.383 40.9501 77.3947C41.1418 77.3833 41.3336 77.4107 41.5129 77.4751C41.6923 77.5394 41.8551 77.6392 41.9908 77.768C42.1265 77.8968 42.2319 78.0516 42.3001 78.2223C42.3684 78.3931 42.398 78.5758 42.3869 78.7586C42.3876 79.1257 42.2373 79.4792 41.9683 79.7433C41.6993 80.0075 41.333 80.1611 40.9481 80.1713Z" fill="#E0E5EB"/>
<path d="M33.9654 87.1109C33.5635 87.1063 33.1806 86.9513 32.8993 86.6792C32.618 86.4071 32.4608 86.0398 32.4618 85.6566C32.4654 85.474 32.5078 85.2939 32.5866 85.127C32.6653 84.9602 32.7788 84.8102 32.9201 84.6862C33.0613 84.5621 33.2274 84.4667 33.4082 84.4056C33.589 84.3445 33.7808 84.319 33.9718 84.3308C34.1631 84.32 34.3545 84.3478 34.5333 84.4124C34.7122 84.477 34.8745 84.5768 35.0097 84.7055C35.1449 84.8342 35.25 84.9888 35.318 85.1592C35.3861 85.3296 35.4156 85.512 35.4047 85.6944C35.4044 86.0616 35.2538 86.4151 34.985 86.6796C34.7162 86.9441 34.3504 87.0988 33.9654 87.1109Z" fill="#E0E5EB"/>
<path d="M23.2768 84.4153C22.8743 84.4107 22.4909 84.255 22.2095 83.9821C21.9282 83.7092 21.7716 83.341 21.7737 82.9572C21.7771 82.7751 21.8194 82.5955 21.8979 82.4291C21.9764 82.2627 22.0896 82.1131 22.2304 81.9894C22.3713 81.8657 22.5369 81.7704 22.7172 81.7095C22.8975 81.6485 23.0887 81.6231 23.2792 81.6349C23.4709 81.6235 23.6627 81.6509 23.8421 81.7153C24.0214 81.7796 24.1843 81.8794 24.32 82.0082C24.4556 82.137 24.561 82.2918 24.6293 82.4625C24.6976 82.6332 24.7271 82.816 24.7161 82.9988C24.7158 83.366 24.5652 83.7195 24.2964 83.984C24.0276 84.2485 23.6618 84.4033 23.2768 84.4153Z" fill="#E0E5EB"/>
<path d="M105.471 97.668C105.434 98.3586 105.118 99.0103 104.589 99.4859C104.06 99.9615 103.359 100.224 102.634 100.218C102.27 100.212 101.911 100.137 101.578 99.9988C101.245 99.8604 100.944 99.6606 100.692 99.4108C100.44 99.161 100.243 98.8661 100.112 98.543C99.9801 98.2199 99.9167 97.8748 99.9251 97.5275C99.9335 97.1802 100.014 96.8375 100.161 96.519C100.308 96.2004 100.519 95.9122 100.783 95.6708C101.046 95.4295 101.357 95.2397 101.697 95.1123C102.036 94.9849 102.399 94.9224 102.763 94.9284C103.13 94.9373 103.492 95.0153 103.827 95.1579C104.162 95.3005 104.464 95.5049 104.716 95.7594C104.967 96.0138 105.164 96.3134 105.293 96.6409C105.423 96.9684 105.483 97.3174 105.471 97.668Z" fill="#E0E5EB"/>
<path d="M113.733 91.0958C113.695 91.7857 113.379 92.4364 112.85 92.9112C112.321 93.3859 111.621 93.6477 110.897 93.6415C110.525 93.6474 110.156 93.5819 109.812 93.4488C109.467 93.3157 109.155 93.1178 108.894 92.8668C108.632 92.6159 108.427 92.317 108.289 91.9881C108.152 91.6591 108.086 91.3068 108.094 90.952C108.103 90.5973 108.186 90.2474 108.34 89.9232C108.493 89.599 108.713 89.3071 108.986 89.0649C109.259 88.8227 109.581 88.6351 109.931 88.5133C110.281 88.3916 110.653 88.3381 111.025 88.3562C111.393 88.3651 111.754 88.4431 112.089 88.5857C112.425 88.7283 112.727 88.9327 112.978 89.1872C113.23 89.4416 113.426 89.7412 113.555 90.0687C113.685 90.3962 113.745 90.7452 113.733 91.0958Z" fill="#E0E5EB"/>
<path d="M120.06 71.9355C120.024 72.6261 119.708 73.2778 119.179 73.7534C118.649 74.229 117.949 74.4913 117.224 74.485C116.859 74.4791 116.5 74.4048 116.167 74.2664C115.834 74.1279 115.533 73.9281 115.281 73.6783C115.03 73.4286 114.833 73.1337 114.701 72.8105C114.569 72.4874 114.506 72.1423 114.514 71.795C114.523 71.4478 114.603 71.105 114.75 70.7865C114.897 70.4679 115.109 70.1797 115.372 69.9384C115.636 69.697 115.946 69.5072 116.286 69.3798C116.626 69.2524 116.988 69.1899 117.352 69.1959C117.72 69.2049 118.082 69.2829 118.417 69.4255C118.752 69.5681 119.054 69.7724 119.305 70.0269C119.557 70.2814 119.753 70.5809 119.882 70.9084C120.012 71.2359 120.072 71.585 120.06 71.9355Z" fill="#E0E5EB"/>
<path fill-rule="evenodd" clip-rule="evenodd" d="M72.922 88.2807C72.7978 88.2572 72.67 88.2591 72.5465 88.2861C72.4231 88.313 72.3064 88.3646 72.2039 88.4376C72.1013 88.5106 72.0149 88.6034 71.95 88.7105C71.8851 88.8175 71.8431 88.9365 71.8265 89.0601C71.2583 90.7959 70.8278 91.5448 69.7662 91.8495C69.7256 91.9414 69.6664 92.0252 69.5912 92.0954C69.4459 92.231 69.2525 92.3049 69.0525 92.3012L58.3464 92.9849C57.904 93.0302 57.457 92.9734 57.0407 92.8192C56.6243 92.6649 56.25 92.4174 55.9473 92.0961C55.8255 91.9467 55.7487 91.7667 55.7254 91.5764C55.6333 91.2247 55.694 85.3108 55.7174 83.3056C55.4737 83.1196 55.1947 82.9787 54.8936 82.8927C50.8004 81.1718 47.0916 78.6717 43.9795 75.5356C42.9721 74.499 42.0186 73.4127 41.1227 72.281C40.9774 72.0401 40.746 71.8616 40.4739 71.7806C40.2018 71.6996 39.9088 71.722 39.6527 71.8434C39.2658 71.9532 38.8743 72.0434 38.4798 72.114C38.3256 72.2108 38.1617 72.2926 37.9904 72.358C37.6452 72.4896 37.2767 72.5518 36.9067 72.5409H29.7785C29.0475 72.4454 28.3519 72.1729 27.7538 71.7477C26.159 70.5717 26.0896 68.3427 26.0064 63.953C26.0064 63.953 25.7984 53.6284 27.7538 51.878C28.092 51.5758 28.4881 51.3434 28.9187 51.1943C29.1975 51.1113 29.4873 51.0698 29.7785 51.0712H29.8199C30.2245 50.8129 30.6752 50.6267 31.1516 50.5241C31.9421 50.3327 32.164 50.0045 32.1224 49.1566C31.8069 45.1265 32.3579 41.076 33.7392 37.2703C35.1205 33.4645 37.301 29.9892 40.1381 27.0716C45.2481 21.4819 52.2908 17.9755 59.8861 17.2393C72.9497 15.8718 83.4617 20.3572 91.1862 30.9142C94.7306 35.8019 96.5171 41.7173 96.2619 47.7207C96.2619 48.9788 96.4005 49.7857 97.7457 50.2506C98.549 50.586 99.2375 51.1419 99.7293 51.8523C100.221 52.5627 100.495 53.3976 100.519 54.2574C100.98 58.3432 101.11 62.4587 100.908 66.5648C100.85 67.2144 100.743 67.8589 100.589 68.493C100.461 69.6455 99.9296 70.718 99.0869 71.5265C98.2442 72.335 97.1424 72.829 95.9706 72.9237C95.7365 72.9606 95.5418 72.9941 95.3801 73.0309C95.2537 73.1178 95.1197 73.1938 94.9793 73.258C94.9038 73.2925 94.8267 73.3235 94.7485 73.3507C94.5838 73.5792 94.5838 73.9544 94.5838 74.6467L94.6256 75.1799C94.7655 76.9577 94.9053 78.7355 94.9305 80.5133C94.9274 81.493 94.7922 82.4679 94.5284 83.4124C94.337 84.4813 93.8048 85.4621 93.0091 86.2122C92.2135 86.9623 91.196 87.4426 90.1045 87.5832C84.3958 88.1476 78.6584 88.3804 72.922 88.2807ZM83.1287 26.7435C88.3861 31.8656 92.0527 38.2826 93.8044 45.246C93.59 42.7526 93.0132 40.2974 92.0876 37.9568C89.9334 32.5186 86.1715 27.8442 81.2901 24.5401C76.4086 21.236 70.6329 19.4547 64.7122 19.4273V19.4546C57.1715 19.2238 49.824 21.8295 44.1598 26.7434C40.9654 29.3677 38.4369 32.6914 36.7756 36.4497C35.8409 38.5643 35.1952 40.7835 34.8493 43.0494C36.1104 38.4848 38.3862 34.2168 41.5524 30.5724C49.5681 20.9726 61.245 20.5213 64.8229 20.5077C68.4009 20.494 78.7464 22.4222 83.1287 26.7435ZM96.5115 54.736V60.662C96.6387 60.7845 96.7463 60.9258 96.8302 61.0813C96.9998 61.7048 97.0562 62.3529 96.9966 62.9958C96.9501 63.7806 96.8057 64.5568 96.5667 65.3069C96.5497 65.343 96.5312 65.3784 96.5115 65.413V70.3453C96.7323 70.2773 96.9413 70.1723 97.1289 70.0333C97.5056 69.7541 97.7726 69.3547 97.8844 68.9033C98.0357 68.4328 98.1381 67.9528 98.2409 67.4712C98.2606 67.3788 98.2804 67.2864 98.3005 67.1939C98.8381 64.5342 98.6261 61.8806 98.4139 59.225C98.3086 57.9073 98.2033 56.589 98.1895 55.2693C98.1625 55.012 98.1019 54.7592 98.0092 54.5172C97.5261 52.8293 96.8093 52.2118 95.0383 52.2736C95.3285 52.4161 95.5927 52.611 95.8157 52.8514C96.2914 53.3641 96.5416 54.0418 96.5115 54.736ZM92.3234 73.9903C92.3234 73.8014 92.3086 73.6385 92.2762 73.4981H87.6637C87.1368 73.4172 86.6353 73.2252 86.1929 72.9371L86.0603 73.1336C85.2717 74.3036 84.4845 75.4715 83.6004 76.5612C80.6465 80.1577 77.3043 83.2619 72.6031 84.5064C72.3534 84.5064 72.0206 84.6842 71.9374 84.8619C71.8542 85.0397 71.9374 85.5594 72.0483 85.6004C72.425 85.7154 72.8197 85.7617 73.2133 85.7371C73.4602 85.735 73.9268 85.7365 74.5533 85.7385C77.9731 85.7494 86.1558 85.7755 89.3556 85.3132L89.3695 85.3406C90.0381 85.3029 90.6746 85.0453 91.1774 84.609C91.6801 84.1728 92.0201 83.5829 92.1431 82.9338C92.4338 81.5339 92.5871 80.1097 92.6007 78.6808C92.6007 77.8575 92.5311 77.0342 92.4613 76.2089C92.3989 75.4715 92.3364 74.7324 92.3234 73.9903Z" fill="white"/>
<path d="M89.9656 51.3583C89.9656 51.3583 92.5312 22.6409 63.4222 22.6409C34.3133 22.6409 37.5584 51.7412 37.5584 51.7412C46.1011 35.1262 54.9489 31.9809 56.8072 33.9638C60.607 38.0663 66.6119 42.1688 73.643 41.8542C87.2891 41.3483 87.9825 50.866 89.9656 51.3583Z" fill="black"/>
<path d="M94.9719 54.0934C94.808 43.7993 90.5557 33.9794 83.1287 26.7435C78.7464 22.4222 68.4009 20.494 64.8229 20.5077C61.245 20.5214 49.5681 20.9727 41.5524 30.5725C36.548 36.3326 33.7681 43.6507 33.7031 51.2353H37.6416C37.6416 51.2353 36.2548 36.1929 48.8609 28.2751C52.8362 25.8914 57.348 24.5149 61.9939 24.2683C67.8341 23.9453 73.6364 25.3757 78.6354 28.3708C91.6714 36.4527 91.3801 53.2729 91.3524 54.1891L94.9719 54.0934Z" fill="#E72323"/>
<path d="M93.9736 73.4981H87.6637C87.0059 73.3971 86.3879 73.1231 85.8747 72.7049C84.4879 71.5289 84.3908 69.2999 84.3215 64.8965C84.3215 64.8965 84.1412 54.5583 85.8747 52.8079C86.1628 52.5097 86.5129 52.2765 86.901 52.1241C87.1467 52.0422 87.4043 52.0007 87.6637 52.001H93.9736C94.6776 52.033 95.34 52.3388 95.8157 52.8514C96.2914 53.3641 96.5416 54.0418 96.5115 54.736V70.7767C96.5264 71.1198 96.4725 71.4624 96.353 71.7849C96.2334 72.1075 96.0506 72.4036 95.8148 72.6563C95.5791 72.9091 95.2952 73.1136 94.9792 73.258C94.6633 73.4024 94.3216 73.484 93.9736 73.4981V73.4981Z" fill="#E0E5EB"/>
<path d="M36.9067 72.5409H29.7785C29.0475 72.4454 28.3519 72.1729 27.7538 71.7477C26.159 70.5717 26.0896 68.3427 26.0064 63.953C26.0064 63.953 25.7984 53.6284 27.7538 51.878C28.092 51.5758 28.4881 51.3434 28.9187 51.1943C29.1975 51.1113 29.4873 51.0698 29.7785 51.0712H36.9067C37.2778 51.0602 37.6475 51.1228 37.9936 51.2553C38.3398 51.3879 38.6555 51.5876 38.9219 51.8426C39.1883 52.0977 39.4001 52.4029 39.5447 52.7402C39.6892 53.0775 39.7636 53.44 39.7635 53.8062V69.8196C39.7618 70.1846 39.686 70.5456 39.5406 70.8813C39.3952 71.217 39.1832 71.5206 38.9169 71.7742C38.6507 72.0278 38.3357 72.2263 37.9904 72.358C37.6452 72.4896 37.2767 72.5518 36.9067 72.5409Z" fill="#E0E5EB"/>
<path d="M69.0525 92.3012L58.3464 92.9849C57.904 93.0302 57.457 92.9734 57.0406 92.8192C56.6243 92.6649 56.25 92.4174 55.9472 92.0961C55.8255 91.9467 55.7486 91.7667 55.7253 91.5764C55.6144 91.1525 55.7253 82.6467 55.7253 82.6467C55.7271 82.5497 55.7483 82.454 55.7876 82.3651C55.8269 82.2762 55.8836 82.1958 55.9544 82.1285C56.0253 82.0612 56.1089 82.0083 56.2004 81.9728C56.292 81.9374 56.3897 81.9201 56.4881 81.9219L69.0525 82.0586C69.2524 82.0549 69.4459 82.1288 69.5911 82.2643C69.7364 82.3999 69.8219 82.5863 69.8291 82.7834V91.5764C69.8219 91.7735 69.7364 91.9599 69.5911 92.0954C69.4459 92.231 69.2524 92.3049 69.0525 92.3012V92.3012Z" fill="#E0E5EB"/>
<path d="M72.922 88.2807C72.7978 88.2572 72.67 88.2591 72.5465 88.2861C72.423 88.313 72.3064 88.3646 72.2039 88.4376C72.1013 88.5106 72.0149 88.6034 71.95 88.7105C71.8851 88.8175 71.8431 88.9365 71.8264 89.0601C70.9805 91.6447 70.4396 92.0413 67.666 92.0413C64.8924 92.0413 62.3823 92.0413 59.7474 91.9319C57.8059 91.9319 57.1957 91.3439 56.849 89.402C56.6091 88.1864 56.5345 86.9448 56.6271 85.7098C56.7489 85.1114 56.6383 84.4898 56.3172 83.9681C55.9962 83.4463 55.4881 83.0625 54.8936 82.8927C50.8004 81.1718 47.0916 78.6717 43.9795 75.5356C42.9721 74.499 42.0186 73.4127 41.1227 72.281C40.9774 72.0401 40.7459 71.8616 40.4739 71.7806C40.2018 71.6996 39.9088 71.722 39.6527 71.8434C38.0649 72.2941 36.3996 72.415 34.7621 72.1985C33.1245 71.9819 31.5504 71.4326 30.1392 70.5853C29.5515 70.2674 29.0503 69.8141 28.6785 69.2641C28.3067 68.7141 28.0751 68.0836 28.0035 67.4264C27.2824 62.9646 27.2824 58.4183 28.0035 53.9565C28.0998 53.1322 28.4551 52.3581 29.0195 51.7427C29.584 51.1272 30.3294 50.7012 31.1516 50.5241C31.942 50.3327 32.1639 50.0045 32.1223 49.1566C31.8069 45.1265 32.3579 41.076 33.7392 37.2703C35.1205 33.4645 37.301 29.9892 40.138 27.0716C45.2481 21.4819 52.2908 17.9755 59.8861 17.2393C72.9497 15.8718 83.4617 20.3572 91.1861 30.9142C94.7305 35.8019 96.517 41.7173 96.2618 47.7207C96.2618 48.9788 96.4005 49.7857 97.7457 50.2506C98.5489 50.586 99.2375 51.1419 99.7292 51.8523C100.221 52.5627 100.495 53.3976 100.519 54.2574C100.98 58.3432 101.11 62.4587 100.908 66.5648C100.85 67.2145 100.743 67.8589 100.589 68.493C100.461 69.6455 99.9295 70.718 99.0869 71.5265C98.2442 72.335 97.1424 72.829 95.9706 72.9237C94.5838 73.1425 94.5838 73.2382 94.5838 74.6467C94.7364 76.6023 94.9028 78.5578 94.9305 80.5133C94.9274 81.493 94.7921 82.4679 94.5283 83.4124C94.3369 84.4813 93.8047 85.4621 93.0091 86.2122C92.2135 86.9623 91.1959 87.4426 90.1044 87.5832C84.3958 88.1476 78.6584 88.3804 72.922 88.2807V88.2807ZM54.5469 34.415C53.7537 34.4401 52.9879 34.7077 52.3557 35.1808C47.4124 38.386 43.4249 42.8326 40.8037 48.0626C40.6341 48.4203 40.4198 48.7557 40.1658 49.0609C40.0246 49.1696 39.9103 49.3086 39.8318 49.4674C39.7532 49.6261 39.7124 49.8005 39.7124 49.9771C39.7124 50.1538 39.7532 50.3281 39.8318 50.4869C39.9103 50.6456 40.0246 50.7846 40.1658 50.8933C41.2284 52.174 41.8068 53.7788 41.8022 55.4334C41.8022 56.3496 41.9825 57.2522 41.9963 58.1684C42.1838 60.9779 42.1838 63.7964 41.9963 66.6059C41.8737 67.3871 41.9242 68.1854 42.1445 68.9455C42.3647 69.7057 42.7495 70.4097 43.2722 71.0092C46.6649 75.1205 50.9805 78.3976 55.8782 80.5817C56.3636 80.8141 56.8351 81.0056 57.265 80.4586C57.5994 80.0923 58.0188 79.8114 58.4874 79.6399C58.9559 79.4685 59.4597 79.4115 59.9554 79.474C62.3932 79.4895 64.8283 79.6356 67.25 79.9116C68.7194 79.8953 70.1373 80.4448 71.2023 81.4432C71.7848 82.1543 72.2425 82.0312 72.8804 81.7988C74.8672 81.0605 76.6934 79.9559 78.2612 78.5441C80.2936 76.6691 82.1034 74.5725 83.6558 72.2946C83.9706 71.7151 84.3887 71.1963 84.8901 70.7631C85.2919 70.482 85.6026 70.0923 85.7847 69.6409C85.9668 69.1896 86.0125 68.6959 85.9163 68.2195C85.9163 64.117 85.9163 60.0145 85.9163 55.8437C85.8523 54.3547 86.3459 52.8945 87.3031 51.7412C87.4093 51.6629 87.4968 51.5625 87.5591 51.4471C87.6215 51.3317 87.6572 51.2041 87.6639 51.0735C87.6705 50.9429 87.6478 50.8125 87.5974 50.6915C87.5471 50.5705 87.4702 50.462 87.3724 50.3737C86.43 48.5441 85.0728 46.9531 83.4062 45.7242C80.3136 43.1397 75.3212 42.9892 73.2271 42.8525C71.133 42.7157 68.9835 42.702 66.9033 42.3738C64.2185 41.7997 61.7895 40.3961 59.9693 38.3671C59.0153 37.3893 57.996 36.4756 56.9183 35.6321C56.2704 34.9947 55.445 34.5616 54.5469 34.3877V34.415ZM89.4526 47.9806C89.4619 47.8851 89.4619 47.7889 89.4526 47.6934C88.1629 40.1859 84.8901 33.7723 78.594 29.1638C75.959 27.1124 72.8863 25.6774 69.6074 24.9668C66.3284 24.2562 62.9286 24.2885 59.6642 25.0614C56.4576 25.7856 53.432 27.1397 50.7681 29.0429C48.1042 30.946 45.8566 33.3591 44.1598 36.1381C43.3477 37.4662 42.607 38.8356 41.9409 40.2405C41.8577 40.391 41.9409 40.6098 41.9409 40.8012C42.1489 40.7192 42.4124 40.7055 42.5511 40.5551C43.7437 39.338 44.8532 38.0252 46.1013 36.8628C47.3229 35.6688 48.6298 34.5629 50.0121 33.5535C51.4254 32.4953 53.1837 31.9859 54.9529 32.122C56.7221 32.2582 58.3789 33.0304 59.6087 34.292C60.4547 35.1261 61.2867 35.974 62.1327 36.7945C63.7116 38.4977 65.8275 39.6252 68.1375 39.9944C70.4258 40.2542 72.7417 40.2816 75.0715 40.4594C76.708 40.5824 78.3582 40.7465 79.9808 40.9927C82.105 41.2932 84.0363 42.3724 85.3893 44.0148C86.5404 45.3823 87.6775 46.7498 88.8425 48.1173C88.9866 48.2395 89.1507 48.3366 89.3278 48.4045L89.4526 47.9806ZM64.7121 19.4546C57.1715 19.2238 49.824 21.8295 44.1598 26.7434C40.9654 29.3677 38.4369 32.6914 36.7755 36.4497C35.1142 40.208 34.3661 44.297 34.5908 48.3908C34.5908 49.7583 34.993 50.0045 36.2966 49.5942C36.465 49.5319 36.6172 49.4333 36.742 49.3055C36.8667 49.1778 36.961 49.0241 37.0177 48.8558C37.1944 48.1577 37.3287 47.4499 37.4199 46.7361C38.4455 39.814 41.8768 33.4579 47.1275 28.7536C51.4055 24.8291 56.9174 22.4676 62.746 22.062C68.5745 21.6565 74.3681 23.2313 79.1626 26.5246C85.5005 30.7998 89.9061 37.3358 91.4496 44.7533C91.7825 46.2165 91.935 47.7208 92.2401 49.184C92.299 49.3472 92.3963 49.4943 92.5241 49.6132C92.6519 49.732 92.8065 49.8193 92.9751 49.8677C93.4882 49.9908 93.8627 49.6763 93.8904 49.1156C93.8904 48.7874 93.8904 48.4592 93.8904 48.131C93.9815 44.6551 93.3686 41.1963 92.0876 37.9568C89.9334 32.5186 86.1715 27.8442 81.2901 24.5401C76.4086 21.236 70.6329 19.4547 64.7121 19.4273V19.4546ZM88.2877 68.1785C88.2877 69.3682 88.7176 69.8742 89.9103 70.0246C91.8657 70.2844 93.8488 70.3665 95.8181 70.4348C96.2889 70.4544 96.7522 70.3125 97.1289 70.0333C97.5056 69.7541 97.7726 69.3547 97.8844 68.9033C98.0647 68.3426 98.1756 67.7682 98.3004 67.1939C99.1048 63.2145 98.2311 59.2487 98.1895 55.2693C98.1624 55.012 98.1018 54.7592 98.0092 54.5172C97.5238 52.8215 96.8027 52.2061 95.0137 52.2745C93.5683 52.3635 92.1286 52.5278 90.7008 52.7668C90.2528 52.8804 89.8199 53.0457 89.411 53.2591C89.0035 53.397 88.662 53.6785 88.4521 54.0495C88.2422 54.4205 88.1788 54.855 88.2739 55.2693C88.4519 56.8907 88.5398 58.5204 88.5374 60.1513C88.5096 61.8196 88.2045 67.1802 88.2739 68.1511L88.2877 68.1785ZM89.3694 85.3406C90.0381 85.3029 90.6746 85.0453 91.1773 84.609C91.6801 84.1728 92.0201 83.5829 92.143 82.9338C92.4338 81.5339 92.5871 80.1097 92.6007 78.6808C92.6007 77.1219 92.3511 75.563 92.3233 73.9903C92.3233 73.1698 92.046 72.8416 91.2416 72.7049C90.0212 72.4861 88.8147 72.1989 87.6221 71.8707C87.5348 71.8323 87.4406 71.8113 87.345 71.8091C87.2494 71.8069 87.1543 71.8234 87.0653 71.8578C86.9762 71.8922 86.895 71.9437 86.8263 72.0093C86.7576 72.0749 86.7028 72.1533 86.6652 72.24C85.6667 73.7032 84.7098 75.1937 83.6003 76.5612C80.6465 80.1577 77.3043 83.2619 72.603 84.5064C72.3534 84.5064 72.0206 84.6842 71.9374 84.8619C71.8541 85.0397 71.9374 85.5594 72.0483 85.6004C72.425 85.7154 72.8197 85.7617 73.2132 85.7371C74.808 85.7235 85.5696 85.8602 89.3556 85.3132L89.3694 85.3406ZM39.4446 61.8196C39.4446 60.1239 39.5417 58.4146 39.4446 56.7325C39.3254 55.5725 39.0885 54.4272 38.7374 53.3138C38.7107 53.115 38.64 52.9244 38.5302 52.7555C38.4205 52.5866 38.2744 52.4436 38.1024 52.3366C37.9304 52.2296 37.7366 52.1612 37.5347 52.1363C37.3329 52.1114 37.128 52.1306 36.9345 52.1925C35.5477 52.3839 34.1609 52.507 32.7741 52.6984C31.1377 52.9309 30.4027 53.5736 30.2918 55.2283C29.9312 58.8663 29.9312 62.5303 30.2918 66.1683C30.3376 66.8904 30.6232 67.5775 31.1044 68.1237C31.5856 68.6699 32.2357 69.0447 32.9544 69.1904C33.9668 69.4639 34.993 69.6827 36.0331 69.8742C38.2936 70.2844 39.2921 69.5596 39.4308 67.2896C39.5417 65.4435 39.4585 63.6658 39.4585 61.7923L39.4446 61.8196ZM64.1713 89.6482H67.874C68.6229 89.6482 69.2608 89.361 69.2608 88.5542C69.2608 86.7901 69.1083 85.0397 68.9419 83.2893C68.8951 83.1168 68.8022 82.9598 68.6729 82.8347C68.5436 82.7097 68.3827 82.6211 68.2069 82.5782C65.5858 82.3594 62.9648 82.2227 60.3298 82.0722C59.6087 82.0722 59.2343 82.3321 59.2343 83.0978C59.2343 84.7935 59.1372 86.4892 59.2343 88.1849C59.2343 89.402 59.5394 89.5524 60.843 89.6482C62.1466 89.7439 63.048 89.6482 64.1713 89.6482Z" fill="black"/>
<path d="M72.1454 55.2693C72.0249 55.2853 71.9021 55.2676 71.7912 55.2184C71.6802 55.1691 71.5855 55.0902 71.5176 54.9906C71.4498 54.891 71.4116 54.7746 71.4074 54.6547C71.4031 54.5348 71.433 54.4161 71.4937 54.3121C71.9459 53.4505 72.6998 52.7799 73.6155 52.4249C74.6699 51.9258 75.83 51.682 76.9992 51.7138C77.8503 51.7916 78.6786 52.0283 79.44 52.4113C79.5954 52.4711 79.7369 52.5613 79.8559 52.6765C79.975 52.7917 80.0691 52.9296 80.1326 53.0817C80.1961 53.2337 80.2277 53.397 80.2255 53.5614C80.2232 53.7259 80.1872 53.8882 80.1195 54.0386C79.9821 54.3032 79.7503 54.5083 79.4686 54.6144C79.1869 54.7204 78.8754 54.7199 78.5941 54.6129C77.4873 54.3687 76.3433 54.3362 75.2241 54.5172C73.9206 54.736 72.7002 55.2693 72.1454 55.2693Z" fill="black"/>
<path d="M96.9966 62.9958C96.9501 63.7806 96.8057 64.5568 96.5667 65.3069C96.4635 65.5252 96.3112 65.7175 96.1214 65.8691C95.9315 66.0208 95.7092 66.1278 95.4712 66.1821C95.1799 66.1821 94.6668 65.8949 94.4865 65.4299C94.3252 63.8945 94.3718 62.3448 94.6252 60.8215C94.7169 60.6236 94.8693 60.4591 95.0609 60.3511C95.2525 60.2432 95.4736 60.1972 95.693 60.2198C95.934 60.2751 96.1601 60.3806 96.3562 60.5292C96.5523 60.6778 96.714 60.866 96.8302 61.0813C96.9998 61.7048 97.0562 62.3529 96.9966 62.9958Z" fill="black"/>
<path d="M32.7049 62.8863C32.7049 62.4897 32.7049 61.6419 32.7049 60.8077C32.6969 60.6602 32.7204 60.5126 32.7741 60.3747C32.8277 60.2367 32.9102 60.1114 33.0161 60.0069C33.122 59.9025 33.2491 59.8211 33.389 59.7683C33.5289 59.7154 33.6785 59.6921 33.8282 59.7C33.9782 59.6881 34.1291 59.708 34.2707 59.7583C34.4123 59.8087 34.5413 59.8884 34.649 59.992C34.7568 60.0957 34.8408 60.2209 34.8953 60.3592C34.9499 60.4976 34.9737 60.6458 34.9653 60.794C35.0139 62.2896 34.9861 63.7866 34.8821 65.2794C34.7989 66.2913 34.2581 66.7563 33.5924 66.6469C32.9267 66.5375 32.5246 66.0178 32.5384 65.0469C32.5662 64.4999 32.6355 63.9256 32.7049 62.8863Z" fill="black"/>
<path d="M75.7092 58.2915C77.0801 58.2915 78.1915 57.1956 78.1915 55.8437C78.1915 54.4918 77.0801 53.3959 75.7092 53.3959C74.3382 53.3959 73.2268 54.4918 73.2268 55.8437C73.2268 57.1956 74.3382 58.2915 75.7092 58.2915Z" fill="black"/>
<path d="M52.4666 58.2915C53.8376 58.2915 54.949 57.1956 54.949 55.8437C54.949 54.4918 53.8376 53.3959 52.4666 53.3959C51.0957 53.3959 49.9843 54.4918 49.9843 55.8437C49.9843 57.1956 51.0957 58.2915 52.4666 58.2915Z" fill="black"/>
<path d="M61.1341 85.1902C60.9894 85.1903 60.8479 85.1484 60.7274 85.0696C60.6068 84.9908 60.5125 84.8788 60.4562 84.7474C60.3999 84.616 60.3842 84.4711 60.4111 84.331C60.4379 84.1908 60.5061 84.0616 60.6071 83.9595C60.7497 83.8326 60.935 83.7624 61.1271 83.7624C61.3192 83.7624 61.5045 83.8326 61.6472 83.9595C61.7807 84.0949 61.8554 84.2765 61.8552 84.4654C61.8575 84.6588 61.7828 84.8454 61.6472 84.9851C61.5061 85.1112 61.3243 85.1838 61.1341 85.1902Z" fill="black"/>
<path d="M64.1851 85.1901C64.0404 85.1902 63.899 85.1483 63.7784 85.0695C63.6578 84.9907 63.5635 84.8787 63.5072 84.7473C63.451 84.6159 63.4353 84.471 63.4621 84.3308C63.4889 84.1907 63.5571 84.0615 63.6581 83.9593C63.727 83.8891 63.8129 83.8373 63.9077 83.8089C63.9954 83.7721 64.0897 83.7531 64.1851 83.7531C64.2804 83.7531 64.3747 83.7721 64.4624 83.8089C64.5516 83.8408 64.6322 83.8922 64.6982 83.9593C64.8318 84.0948 64.9064 84.2764 64.9062 84.4653C64.9086 84.6587 64.8339 84.8453 64.6982 84.985C64.5585 85.1132 64.3759 85.1862 64.1851 85.1901V85.1901Z" fill="black"/>
<path d="M67.236 85.1901C67.1447 85.2107 67.0499 85.2107 66.9586 85.1901C66.8705 85.1564 66.7902 85.1052 66.7229 85.0397C66.6528 84.9734 66.5971 84.8937 66.559 84.8056C66.521 84.7175 66.5013 84.6227 66.5013 84.5269C66.5013 84.4312 66.521 84.3364 66.559 84.2482C66.5971 84.1601 66.6528 84.0805 66.7229 84.0141C66.7867 83.9444 66.868 83.8925 66.9586 83.8637C67.091 83.8102 67.2362 83.796 67.3766 83.8227C67.517 83.8494 67.6465 83.916 67.7491 84.0141C67.8192 84.0805 67.8749 84.1601 67.913 84.2482C67.951 84.3364 67.9707 84.4312 67.9707 84.5269C67.9707 84.6227 67.951 84.7175 67.913 84.8056C67.8749 84.8937 67.8192 84.9734 67.7491 85.0397C67.6016 85.1483 67.4197 85.2016 67.236 85.1901Z" fill="black"/>
<path d="M64.1852 88.431C64.0939 88.4515 63.9991 88.4515 63.9078 88.431C63.833 88.3951 63.7668 88.3438 63.7137 88.2806C63.579 88.1429 63.5037 87.959 63.5037 87.7677C63.5037 87.5764 63.579 87.3926 63.7137 87.2549C63.8549 87.1252 64.0407 87.053 64.2337 87.053C64.4267 87.053 64.6126 87.1252 64.7538 87.2549C64.8238 87.3213 64.8796 87.4009 64.9176 87.489C64.9557 87.5772 64.9753 87.672 64.9753 87.7677C64.9753 87.8635 64.9557 87.9583 64.9176 88.0464C64.8796 88.1346 64.8238 88.2142 64.7538 88.2806C64.6755 88.3444 64.5842 88.3909 64.4861 88.4168C64.388 88.4428 64.2854 88.4476 64.1852 88.431V88.431Z" fill="black"/>
<path d="M67.236 88.4312C67.1447 88.4517 67.0499 88.4517 66.9586 88.4312C66.8664 88.4058 66.7841 88.3533 66.7229 88.2808C66.6182 88.1801 66.5464 88.051 66.5165 87.91C66.4866 87.7689 66.5001 87.6222 66.5552 87.4887C66.6102 87.3552 66.7044 87.2409 66.8257 87.1605C66.947 87.08 67.0898 87.037 67.236 87.037C67.3821 87.037 67.525 87.08 67.6463 87.1605C67.7675 87.2409 67.8617 87.3552 67.9168 87.4887C67.9719 87.6222 67.9854 87.7689 67.9555 87.91C67.9256 88.051 67.8538 88.1801 67.7491 88.2808C67.6047 88.3953 67.4204 88.4492 67.236 88.4312Z" fill="black"/>
<path d="M61.134 88.431C60.9379 88.4334 60.7486 88.3597 60.607 88.2259C60.4734 88.0905 60.3988 87.9089 60.399 87.72C60.3966 87.5266 60.4713 87.34 60.607 87.2003C60.7482 87.0705 60.934 86.9984 61.1271 86.9984C61.3201 86.9984 61.5059 87.0705 61.6471 87.2003C61.7828 87.34 61.8575 87.5266 61.8551 87.72C61.857 87.8139 61.8396 87.9072 61.8041 87.9943C61.7685 88.0814 61.7155 88.1605 61.6481 88.2269C61.5808 88.2933 61.5005 88.3456 61.4122 88.3807C61.3238 88.4158 61.2292 88.4329 61.134 88.431V88.431Z" fill="black"/>
<path d="M57.1955 46.572C58.0691 47.0233 59.3589 47.6386 59.0538 48.5548C58.7487 49.4711 57.2925 49.2249 56.4327 48.8694C54.9044 48.113 53.2195 47.7152 51.5096 47.707C50.2295 47.6524 48.9573 47.9307 47.8207 48.5138C47.7134 48.595 47.5971 48.6638 47.474 48.719C46.9193 48.9788 45.9208 49.0882 45.5879 48.4728C45.2551 47.8574 45.4631 47.1873 46.212 46.613C47.9307 45.4651 50.0282 45.0054 52.0782 45.3276C53.8482 45.4206 55.5845 45.8428 57.1955 46.572Z" fill="black"/>
<path d="M78.1499 44.8625C80.2362 45.0174 82.216 45.8328 83.7942 47.1873C83.9256 47.2876 84.0357 47.4126 84.118 47.555C84.2004 47.6973 84.2533 47.8544 84.274 48.017C84.2946 48.1797 84.2824 48.3447 84.2382 48.5027C84.1939 48.6607 84.1184 48.8085 84.0161 48.9377C83.8114 49.1428 83.5422 49.2734 83.2526 49.3082C82.9629 49.343 82.6698 49.2798 82.4212 49.1291C81.6324 48.4543 80.6973 47.9666 79.6877 47.7034C78.678 47.4403 77.6206 47.4088 76.5967 47.6112C75.515 47.871 74.7384 48.2266 73.5041 48.5821C72.7279 48.8722 71.9071 49.0294 71.0772 49.0471C70.9168 49.0598 70.7557 49.0312 70.6099 48.9641C70.464 48.897 70.3383 48.7936 70.2451 48.6642C70.1546 48.4873 70.122 48.287 70.1519 48.0911C70.1817 47.8951 70.2724 47.7131 70.4116 47.5702C70.6654 47.2717 70.9765 47.0254 71.3268 46.8454C73.4602 45.7812 75.7723 45.1093 78.1499 44.8625V44.8625Z" fill="black"/>
<path d="M56.1278 55.3104C56.8628 55.4335 56.9876 54.9549 56.6825 54.3121C55.6562 52.1241 52.5221 51.5771 51.1353 51.7412C50.2783 51.7914 49.4418 52.0198 48.6806 52.4113C48.3912 52.5603 48.1644 52.8052 48.0401 53.1029C47.9158 53.4005 47.902 53.7319 48.0011 54.0386C48.2923 54.695 48.9025 54.7361 49.5266 54.613C49.7901 54.613 50.0258 54.4079 50.2755 54.3805C51.0081 54.3595 51.7411 54.4007 52.4666 54.5036C54.1169 54.7771 55.684 55.2283 56.1278 55.3104Z" fill="black"/>
<path d="M64.3791 66.811C62.7981 66.811 60.2187 65.5256 60.5654 63.9667C60.6902 63.3376 61.758 63.1051 62.3266 63.4744C62.9896 63.8988 63.7657 64.1189 64.556 64.1067C65.3464 64.0946 66.1151 63.8506 66.7644 63.406C67.5964 62.941 68.0541 63.406 67.9431 64.1171C67.8095 64.9296 67.3661 65.6611 66.7036 66.1619C66.041 66.6627 65.2095 66.8949 64.3791 66.811V66.811Z" fill="black"/>
<path d="M65.3362 73.3203C62.571 73.2936 59.8381 72.7314 57.2928 71.6656C57.1196 71.5852 56.9786 71.4502 56.8921 71.2818C56.8056 71.1135 56.7785 70.9215 56.8151 70.7363C56.8517 70.5511 56.9499 70.3832 57.0942 70.2592C57.2385 70.1353 57.4206 70.0623 57.6117 70.0519C58.264 69.9835 58.923 70.0112 59.5671 70.134C61.3551 70.5425 63.1821 70.7625 65.0172 70.7904C66.7538 70.9733 68.5014 70.563 69.9681 69.628C70.3046 69.3633 70.703 69.1858 71.1269 69.1117C71.5508 69.0377 71.9867 69.0694 72.395 69.2041C72.6853 69.406 72.886 69.71 72.9557 70.0535C73.0254 70.397 72.9587 70.7538 72.7694 71.0502C70.5939 72.5559 67.9939 73.3499 65.3362 73.3203V73.3203Z" fill="black"/>
<path d="M64.8368 74.6057C66.9448 74.6057 67.7075 74.2501 67.7075 74.9612C67.7075 75.6723 67.1389 76.0962 66.0156 76.1373C65.0233 76.2139 64.0263 76.2139 63.034 76.1373C62.0216 76.0142 61.7443 75.6039 61.7443 75.1116C61.7443 74.2501 62.7289 74.6057 64.8368 74.6057Z" fill="black"/>
</g>
<defs>
<clipPath id="clip0_1891_2056">
<rect width="128" height="128" fill="white"/>
</clipPath>
</defs>
</svg>
